<?xml version="1.0" standalone="no"?>
<!DOCTYPE svg PUBLIC "-//W3C//DTD SVG 20010904//EN"
 "http://www.w3.org/TR/2001/REC-SVG-20010904/DTD/svg10.dtd">
<svg version="1.0" xmlns="http://www.w3.org/2000/svg"
 width="88.000000pt" height="88.000000pt" viewBox="0 0 88.000000 88.000000"
 preserveAspectRatio="xMidYMid meet">
<circle cx="44" cy="44" r="44" fill="#ffffff"/>
<g transform="translate(0.000000,88.000000) scale(0.100000,-0.100000)"
fill="#000000" stroke="none">
<path d="M335 866 c-151 -37 -272 -151 -316 -298 -17 -55 -21 -88 -17 -158 4
-77 9 -98 41 -162 45 -92 121 -167 214 -211 64 -30 74 -32 183 -32 108 0 119
2 180 31 283 135 348 494 129 713 -110 109 -267 153 -414 117z m271 -76 c82
-40 150 -108 188 -190 28 -59 31 -74 31 -165 0 -92 -3 -105 -32 -166 -76 -155
-252 -248 -415 -219 -129 24 -241 110 -296 228 -24 50 -27 69 -27 162 0 96 3
110 29 165 51 102 155 187 263 215 21 5 73 8 117 6 62 -4 91 -10 142 -36z"/>
<path d="M344 590 l-27 -40 -68 0 -69 0 0 -150 0 -150 260 0 260 0 0 150 0
150 -70 0 -70 0 -26 40 -27 40 -68 0 -69 0 -26 -40z m136 -10 c0 -17 -7 -20
-40 -20 -33 0 -40 3 -40 20 0 17 7 20 40 20 33 0 40 -3 40 -20z m22 -109 c68
-61 28 -166 -63 -166 -34 0 -46 6 -70 33 -83 93 40 216 133 133z"/>
<path d="M385 455 c-14 -13 -25 -34 -25 -46 0 -25 7 -21 24 13 6 12 22 28 34
34 34 17 38 24 13 24 -12 0 -33 -11 -46 -25z"/>
<path d="M625 590 c-4 -7 -3 -16 3 -22 14 -14 45 -2 40 15 -6 16 -34 21 -43 7z"/>
</g>
</svg>
